<svg width="176" height="85" viewBox="0 0 176 85" fill="none" xmlns="http://www.w3.org/2000/svg">
<path d="M3.70164 54.3973C3.04164 54.3973 2.47164 54.6373 2.02164 55.1773C1.66164 55.5973 1.48164 56.0773 1.48164 56.6173V56.6473V68.0173C1.48164 68.5273 1.66164 68.9773 1.99164 69.3973C2.44164 69.9373 3.01164 70.2373 3.73164 70.2373C4.27164 70.2373 4.75164 70.0573 5.17164 69.7273C5.71164 69.3073 5.98164 68.7673 5.98164 68.1073V56.6473C5.98164 56.0473 5.80164 55.5673 5.41164 55.1473C4.99164 54.6373 4.42164 54.3973 3.76164 54.3973H3.70164ZM1.48164 69.8773V73.0873V73.1473C1.48164 73.7473 1.69164 74.2873 2.11164 74.7373C2.59164 75.1573 3.13164 75.3973 3.73164 75.3973C3.73164 75.3973 3.76164 75.3973 3.79164 75.3973H17.7116C18.3116 75.3973 18.7916 75.1873 19.2116 74.8273C19.7216 74.3773 19.9616 73.8373 19.9616 73.1773V73.1173C19.9616 72.4273 19.6916 71.8573 19.1516 71.4373C18.7616 71.0773 18.2816 70.8973 17.7416 70.8973H17.7116H5.98164H3.73164C3.25164 70.8973 2.80164 70.7773 2.38164 70.5973C2.05164 70.4173 1.75164 70.1773 1.48164 69.8773ZM26.7716 62.7373C27.0716 62.4673 27.3716 62.2573 27.7316 62.1373C28.0916 61.9873 28.4216 61.9273 28.7816 61.9273C29.2616 61.9273 29.6816 62.0173 30.1016 62.2573C30.5816 62.4973 30.9716 62.8273 31.2716 63.2773C31.6316 61.9873 32.3516 60.9373 33.4016 60.1273C34.4816 59.2873 35.6816 58.8973 37.0016 58.8973C38.6816 58.8973 40.0916 59.4373 41.2316 60.6373C42.4016 61.8073 42.9716 63.2173 42.9716 64.8973C42.9716 66.5473 42.4016 67.9273 41.2316 69.1273C40.0916 70.2973 38.6816 70.8973 37.0016 70.8973C35.6816 70.8973 34.4816 70.5073 33.4016 69.6973C32.3216 68.8573 31.6016 67.8073 31.2416 66.5173C31.0316 66.8473 30.7616 67.1473 30.4016 67.3873C29.9216 67.6873 29.3816 67.8373 28.7816 67.8373C28.3616 67.8373 27.9716 67.7473 27.5516 67.5973C27.2516 67.4473 27.0116 67.2673 26.7716 67.0573C27.2816 69.4573 28.4816 71.4373 30.4016 73.0273C32.3216 74.5873 34.5416 75.3973 37.0016 75.3973C38.9216 75.3973 40.6316 74.9173 42.2516 73.9873C43.8716 73.0273 45.1316 71.7973 46.0616 70.1773C47.0216 68.5573 47.4716 66.7873 47.4716 64.8973C47.4716 62.9773 47.0516 61.2673 46.0916 59.6473C45.1616 58.0273 43.9016 56.7373 42.2816 55.8073C40.6616 54.8473 38.9216 54.3973 37.0016 54.3973C34.5416 54.3973 32.3516 55.1473 30.4316 56.7373C28.5116 58.2973 27.3116 60.3073 26.7716 62.7373ZM28.7816 62.6473C28.1216 62.6473 27.5816 62.8873 27.1316 63.3673C26.8916 63.6073 26.7416 63.8773 26.6216 64.2373C26.5616 64.4473 26.5316 64.6873 26.5316 64.9273C26.5316 65.1373 26.5616 65.3473 26.6216 65.5573C26.7116 65.8273 26.8316 66.0673 27.0116 66.3073C27.4616 66.8473 28.0616 67.1473 28.7816 67.1473C29.5016 67.1473 30.1016 66.8773 30.5216 66.3373C30.7616 66.0673 30.9116 65.7973 30.9716 65.4973C31.0316 65.2873 31.0316 65.0773 31.0316 64.8973C31.0316 64.7173 31.0316 64.5373 30.9716 64.3873C30.9116 63.9973 30.7316 63.6673 30.4916 63.3973C30.0416 62.8873 29.4716 62.6473 28.7816 62.6473ZM65.8841 54.3973C65.4341 54.3973 65.0141 54.5173 64.6241 54.7873C64.2941 54.9973 64.0241 55.2973 63.8441 55.6573L61.8641 59.2273C62.1941 59.1073 62.5241 59.0473 62.8841 59.0473C63.0041 59.0473 63.0941 59.0473 63.1841 59.0473C63.5741 59.0773 63.9341 59.1973 64.2941 59.3773C64.3241 59.3773 64.3541 59.4073 64.3541 59.4373C64.5941 59.5573 64.7741 59.7073 64.9541 59.8873C65.1641 60.0673 65.3441 60.3073 65.4641 60.5473L73.1141 74.1973C73.3241 74.5573 73.5941 74.8273 73.9541 75.0673C74.3141 75.2773 74.7041 75.3973 75.1241 75.3973C75.7241 75.3973 76.2641 75.1873 76.6841 74.7673C77.1641 74.2873 77.3741 73.7473 77.3741 73.1473C77.3741 72.7573 77.2841 72.3973 77.0741 72.0673L67.8941 55.6273C67.7441 55.3273 67.5341 55.0573 67.2341 54.8473C67.0541 54.6973 66.8441 54.5773 66.6041 54.5173C66.3941 54.4273 66.1541 54.3973 65.8841 54.3973ZM62.8241 59.7073C62.0141 59.7073 61.4141 60.0673 60.9941 60.7873L54.6641 72.0673C54.4841 72.3973 54.3941 72.7573 54.3941 73.1473C54.3941 73.7473 54.6041 74.2573 55.0241 74.7073C55.4741 75.1573 56.0141 75.3973 56.6441 75.3973C57.0641 75.3973 57.4541 75.2773 57.8141 75.0673C58.1741 74.8273 58.4741 74.5573 58.6541 74.1973L64.9541 62.9173C65.1041 62.6173 65.1641 62.2873 65.1641 61.9873C65.1641 61.7473 65.1341 61.5373 65.0741 61.3273C64.8941 60.7273 64.5341 60.3073 63.9941 60.0073C63.6641 59.7973 63.3041 59.7073 62.8841 59.7073C62.8841 59.7073 62.8541 59.7073 62.8241 59.7073ZM88.2859 54.3973H88.2559C87.5959 54.3973 87.0259 54.6373 86.5759 55.1773C86.2159 55.5973 86.0359 56.0773 86.0359 56.6173V56.6473V73.0873V73.1473C86.0359 73.7473 86.2459 74.2873 86.6659 74.7373C87.1159 75.1573 87.6559 75.3973 88.2859 75.3973H94.0159C94.0459 75.3973 94.0459 75.3973 94.0759 75.3973C94.1359 75.3973 94.1659 75.3973 94.1659 75.3973C94.7659 75.3973 95.3659 75.3373 95.9359 75.2173C96.5059 75.0973 97.0759 74.9473 97.6159 74.7673C97.1659 74.6473 96.7759 74.4073 96.4159 74.1073C96.1759 73.8673 95.9359 73.5973 95.7559 73.2973C95.5459 72.8473 95.4259 72.3673 95.4259 71.8873C95.4259 71.4673 95.5159 71.0473 95.6959 70.6573C95.1559 70.8073 94.6159 70.8973 94.0459 70.8973H90.5359V58.8973V56.6473C90.5359 56.1673 90.6559 55.7173 90.8659 55.2973C91.0459 54.9373 91.2859 54.6373 91.5559 54.3973H88.2859ZM93.3859 54.3973C92.6659 54.3973 92.0959 54.6973 91.6459 55.2973C91.3759 55.6873 91.2259 56.1373 91.2259 56.6473C91.2259 57.2473 91.4359 57.7573 91.8259 58.2073C92.2459 58.6273 92.7859 58.8673 93.3859 58.8973H93.9259C93.9859 58.8973 94.0759 58.8973 94.1359 58.8973C95.7859 58.9273 97.1659 59.5273 98.3059 60.6973C99.4459 61.8373 100.016 63.2473 100.016 64.8973C100.016 65.9773 99.7459 66.9673 99.2059 67.8973C98.6659 68.7973 97.9459 69.5473 97.0459 70.0873C97.0459 70.0873 97.0159 70.0873 96.9559 70.1173C96.5359 70.4773 96.2659 70.9273 96.1459 71.5273C96.1459 71.6473 96.1159 71.7673 96.1159 71.8873C96.1159 72.2473 96.2059 72.6073 96.3559 72.9673C96.5959 73.3873 96.9259 73.7173 97.3459 73.9573C97.6759 74.1073 98.0059 74.1973 98.3659 74.1973C98.7259 74.1973 99.0259 74.1073 99.3259 73.9573C100.916 73.0273 102.176 71.7973 103.106 70.1773C104.066 68.5573 104.516 66.7873 104.516 64.8973C104.516 63.0373 104.066 61.2973 103.166 59.7373C102.266 58.1473 101.066 56.9173 99.5059 55.9573C97.9759 54.9973 96.2959 54.4573 94.4359 54.3973C94.2259 54.3973 94.0759 54.3973 93.9859 54.3973H93.3859ZM115.475 54.3973H115.415C114.755 54.3973 114.185 54.6373 113.735 55.1773C113.375 55.5973 113.195 56.0773 113.195 56.6173V56.6473V62.9773C113.795 62.2873 114.545 61.9573 115.445 61.9573C116.375 61.9573 117.125 62.2873 117.695 63.0073V56.6473C117.695 56.0473 117.515 55.5673 117.125 55.1473C116.705 54.6373 116.135 54.3973 115.475 54.3973ZM115.445 62.6473C114.995 62.6473 114.605 62.7673 114.215 63.0073C113.855 63.2473 113.555 63.5473 113.375 63.9673C113.255 64.2373 113.195 64.5373 113.195 64.8973C113.195 65.2573 113.285 65.6173 113.435 65.9173C113.615 66.2773 113.885 66.5773 114.245 66.8173C114.605 67.0273 115.025 67.1473 115.445 67.1473C116.015 67.1473 116.495 66.9673 116.915 66.6073C117.185 66.3673 117.395 66.1273 117.515 65.8273C117.635 65.4973 117.695 65.1673 117.695 64.8673C117.695 64.6273 117.665 64.3873 117.575 64.1773C117.455 63.7873 117.245 63.4573 116.945 63.1873C116.525 62.8273 116.015 62.6473 115.445 62.6473ZM117.695 66.7873C117.125 67.5073 116.375 67.8673 115.445 67.8673C114.545 67.8673 113.795 67.5073 113.195 66.8173V73.0873V73.1473C113.195 73.7473 113.435 74.2873 113.855 74.7373C114.305 75.1573 114.845 75.3973 115.445 75.3973C116.105 75.3973 116.675 75.1573 117.095 74.6773C117.515 74.2573 117.695 73.7473 117.695 73.1473V73.1173V66.7873ZM128.659 54.3973C128.059 54.3973 127.549 54.6073 127.099 55.0273C126.649 55.4473 126.409 55.9873 126.409 56.6473V62.7973C126.649 62.4973 126.949 62.2873 127.279 62.1373C127.699 61.9273 128.149 61.8373 128.629 61.8373H128.689C129.169 61.8373 129.589 61.9273 130.009 62.1373C130.369 62.2873 130.669 62.4973 130.909 62.7973C130.969 62.8573 131.029 62.9173 131.059 62.9773L140.869 74.5273C141.319 75.0973 141.919 75.3973 142.639 75.3973C143.299 75.3973 143.869 75.1273 144.319 74.6473C144.709 74.2273 144.889 73.7173 144.889 73.1473V73.1173V67.0273C144.649 67.2673 144.349 67.4773 143.989 67.6573C143.569 67.8373 143.119 67.9573 142.639 67.9573C142.099 67.9573 141.559 67.8073 141.079 67.5673C140.749 67.3573 140.449 67.1173 140.209 66.8173L130.339 55.1473C130.129 54.9073 129.859 54.6973 129.559 54.5773C129.289 54.4573 128.989 54.3973 128.659 54.3973ZM142.639 54.3973C142.039 54.3973 141.499 54.6073 141.079 55.0273C140.629 55.4473 140.389 55.9873 140.389 56.6473V65.3473C140.389 65.7673 140.539 66.1273 140.809 66.4873C141.259 67.0273 141.859 67.3273 142.639 67.3273C143.179 67.3273 143.659 67.1773 144.079 66.8773C144.619 66.4573 144.889 65.9473 144.889 65.3473V56.6473C144.889 55.9273 144.619 55.3573 144.079 54.9373C143.659 54.5773 143.179 54.3973 142.639 54.3973ZM128.629 62.4673C128.029 62.4673 127.519 62.6473 127.099 63.0373C126.679 63.4273 126.439 63.9073 126.409 64.4773V73.0873V73.1473C126.409 73.6273 126.559 74.0773 126.859 74.4973C127.339 75.0973 127.939 75.3973 128.659 75.3973C129.319 75.3973 129.859 75.1573 130.279 74.7073C130.699 74.2873 130.909 73.7473 130.909 73.1473V73.1173V64.4773C130.909 63.6673 130.519 63.0673 129.739 62.7073C129.439 62.5273 129.079 62.4673 128.689 62.4673H128.629ZM164.039 54.3973C162.149 54.3973 160.409 54.8473 158.789 55.8073C157.169 56.7373 155.939 57.9973 154.979 59.6173C154.049 61.2373 153.569 62.9773 153.569 64.8973C153.569 66.7873 154.019 68.5273 154.949 70.1473C155.909 71.7673 157.139 73.0273 158.759 73.9873C160.379 74.9173 162.149 75.3973 164.039 75.3973C165.659 75.3973 167.159 75.0673 168.569 74.3773C170.009 73.6573 171.209 72.7273 172.169 71.5273C172.199 71.4673 172.229 71.4373 172.289 71.3773C172.559 70.9873 172.679 70.5673 172.679 70.1473C172.679 69.9073 172.649 69.6673 172.559 69.4573C172.439 68.9773 172.139 68.6173 171.719 68.3173C171.329 68.0173 170.879 67.8673 170.399 67.8673C170.249 67.8673 170.099 67.8673 169.919 67.9273C169.439 68.0173 169.049 68.2573 168.719 68.6173C168.719 68.6473 168.659 68.7073 168.569 68.8273C167.369 70.2073 165.869 70.8973 164.039 70.8973C162.419 70.8973 161.039 70.3273 159.839 69.1573C158.669 67.9573 158.069 66.5473 158.069 64.8973C158.069 63.2173 158.639 61.8373 159.809 60.6673C161.009 59.4673 162.419 58.8973 164.039 58.8973C165.059 58.8973 166.019 59.1373 166.889 59.6173C166.859 59.4073 166.829 59.1973 166.829 59.0173C166.829 58.2073 167.099 57.5473 167.639 56.9773C168.209 56.3773 168.869 56.0773 169.649 56.0473C167.969 54.9373 166.079 54.3973 164.039 54.3973ZM169.799 56.7373C169.139 56.7373 168.569 56.9773 168.119 57.4873C167.729 57.9073 167.519 58.4173 167.519 59.0173C167.579 59.4073 167.639 59.7373 167.759 59.9773C167.879 60.2173 168.089 60.4873 168.359 60.7873C168.779 61.0873 169.259 61.2673 169.799 61.2673C170.459 61.2673 171.029 61.0273 171.449 60.5473C171.869 60.0973 172.049 59.5873 172.049 59.0173C172.049 58.4773 171.899 58.0273 171.569 57.6373C171.089 57.0373 170.489 56.7373 169.799 56.7373ZM172.259 62.7073H165.449C164.729 62.7073 164.129 62.9773 163.679 63.5773C163.379 63.9673 163.199 64.4173 163.199 64.9573C163.199 65.4373 163.349 65.8873 163.619 66.2773C164.069 66.8773 164.669 67.2073 165.449 67.2073H169.559H170.279C170.519 67.1773 170.759 67.1773 170.999 67.2373C171.419 67.3273 171.779 67.5073 172.109 67.7473C172.409 67.9573 172.679 68.2273 172.859 68.5573C173.129 68.9173 173.279 69.3073 173.339 69.7573C174.119 68.2573 174.509 66.6973 174.509 65.0173C174.509 64.9873 174.509 64.9573 174.509 64.9573C174.509 64.9573 174.509 64.9273 174.509 64.8973C174.509 64.2973 174.299 63.8173 173.909 63.3973C173.459 62.9173 172.919 62.7073 172.259 62.7073Z" fill="white"/>
<path d="M58.0548 15.1246L58.0193 35.7696C58.011 40.5656 63.3547 43.4324 67.346 40.7731L87.9416 27.0514L108.49 40.8438C112.472 43.5168 117.826 40.6684 117.834 35.8723L117.868 15.8752C117.882 7.99357 110.319 2.30981 102.752 4.51426L101.879 4.76865C92.2791 7.56535 82.0679 7.47109 72.5211 4.49764C65.3507 2.26432 58.0677 7.61443 58.0548 15.1246Z" fill="url(#paint0_linear)"/>
<path d="M88.1635 27.0569L82.13 22.7648C81.7654 22.5055 81.2697 22.8189 81.3478 23.2595L82.6409 30.5568L88.1635 27.0569Z" fill="#110F28" fill-opacity="0.15"/>
<path d="M65.5919 7.00005C60.4817 9.75489 61.0734 12 61.0734 14.5" stroke="white" stroke-opacity="0.4" stroke-width="1.5" stroke-linecap="round"/>
<path d="M115.274 26.0004L115.274 27.0004" stroke="white" stroke-opacity="0.4" stroke-width="1.5" stroke-linecap="round"/>
<path d="M61.0525 18V20" stroke="white" stroke-opacity="0.4" stroke-width="1.5" stroke-linecap="round"/>
<path d="M115.274 30.0004L115.274 35.0004" stroke="white" stroke-opacity="0.4" stroke-width="1.5" stroke-linecap="round"/>
<path d="M71.0526 15L71.0527 21" stroke="#0A0D27" stroke-width="2" stroke-linecap="round"/>
<path d="M68.0403 18L74.0649 18" stroke="#0A0D27" stroke-width="2" stroke-linecap="round"/>
<ellipse rx="1.50616" ry="1.5" transform="matrix(1 7.0266e-06 7.05545e-06 1 102.723 13.557)" fill="#0A0D27"/>
<ellipse rx="1.50616" ry="1.5" transform="matrix(1 7.0266e-06 7.05545e-06 1 107.744 17.5003)" fill="#0A0D27"/>
<ellipse rx="1.50616" ry="1.5" transform="matrix(1 7.0266e-06 7.05545e-06 1 102.723 21.5003)" fill="#0A0D27"/>
<ellipse rx="1.50616" ry="1.5" transform="matrix(1 7.0266e-06 7.05545e-06 1 97.7025 17.5003)" fill="#0A0D27"/>
<defs>
<linearGradient id="paint0_linear" x1="87.1592" y1="-7.4998" x2="88.1547" y2="49.0004" gradientUnits="userSpaceOnUse">
<stop stop-color="#47C8FF"/>
<stop offset="1" stop-color="#2B96D8"/>
</linearGradient>
</defs>
</svg>
