<svg width="158" height="48" viewBox="0 0 158 48" fill="none" xmlns="http://www.w3.org/2000/svg">
<path d="M0.0547602 15.2273L0.0192849 35.8723C0.0110436 40.6683 5.35471 43.5351 9.34604 40.8758L29.9416 27.1541L50.4899 40.9466C54.4721 43.6195 59.8255 40.7711 59.8338 35.9751L59.8681 15.9779C59.8817 8.09629 52.3194 2.41252 44.7523 4.61697L43.8791 4.87137C34.2791 7.66806 24.0679 7.5738 14.5211 4.60036C7.35072 2.36704 0.0676653 7.71714 0.0547602 15.2273Z" fill="url(#paint0_linear)"/>
<path d="M30.1635 27.1596L24.13 22.8676C23.7654 22.6082 23.2697 22.9216 23.3478 23.3622L24.6409 30.6596L30.1635 27.1596Z" fill="#110F28" fill-opacity="0.15"/>
<path d="M7.59186 7.10277C2.48169 9.8576 3.07342 12.1027 3.07343 14.6027" stroke="white" stroke-opacity="0.4" stroke-width="1.5" stroke-linecap="round"/>
<path d="M57.2743 26.1031L57.2743 27.1031" stroke="white" stroke-opacity="0.4" stroke-width="1.5" stroke-linecap="round"/>
<path d="M3.05249 18.1027V20.1027" stroke="white" stroke-opacity="0.4" stroke-width="1.5" stroke-linecap="round"/>
<path d="M57.2744 30.1031L57.2744 35.1031" stroke="white" stroke-opacity="0.4" stroke-width="1.5" stroke-linecap="round"/>
<path d="M13.0526 15.1027L13.0527 21.1027" stroke="#0A0D27" stroke-width="2" stroke-linecap="round"/>
<path d="M10.0403 18.1027L16.0649 18.1028" stroke="#0A0D27" stroke-width="2" stroke-linecap="round"/>
<ellipse rx="1.50616" ry="1.5" transform="matrix(1 7.0266e-06 7.05545e-06 1 44.723 13.6597)" fill="#0A0D27"/>
<ellipse rx="1.50616" ry="1.5" transform="matrix(1 7.0266e-06 7.05545e-06 1 49.7435 17.6031)" fill="#0A0D27"/>
<ellipse rx="1.50616" ry="1.5" transform="matrix(1 7.0266e-06 7.05545e-06 1 44.723 21.603)" fill="#0A0D27"/>
<ellipse rx="1.50616" ry="1.5" transform="matrix(1 7.0266e-06 7.05545e-06 1 39.7025 17.603)" fill="#0A0D27"/>
<path d="M79.2628 12.6327C79.2428 12.6327 79.2228 12.6327 79.2028 12.6327C78.5228 12.7327 78.0028 13.0727 77.6428 13.6527C77.4228 14.0327 77.3128 14.4327 77.3128 14.8527C77.3128 14.9527 77.3228 15.0527 77.3428 15.1527V15.1827L78.7228 24.5127C78.8028 25.0527 79.0628 25.5027 79.5028 25.8627C79.9228 26.1827 80.3928 26.3427 80.9128 26.3427C81.0328 26.3427 81.1528 26.3327 81.2728 26.3127C81.9328 26.2127 82.4428 25.8927 82.8028 25.3527C83.0628 24.9927 83.1928 24.5827 83.1928 24.1227C83.1928 24.0427 83.1828 23.9527 83.1628 23.8527L81.7828 14.5227C81.7028 13.9627 81.4428 13.4927 81.0028 13.1127C80.5828 12.7727 80.1028 12.6027 79.5628 12.6027C79.4628 12.6027 79.3628 12.6127 79.2628 12.6327ZM98.0428 12.6027C97.5028 12.6027 97.0228 12.7827 96.6028 13.1427C96.1628 13.5027 95.9028 13.9627 95.8228 14.5227L94.4128 24.0327C94.3928 24.1127 94.3828 24.1827 94.3828 24.2427C94.3828 24.7627 94.5528 25.2227 94.8928 25.6227C95.2528 26.0827 95.7328 26.3527 96.3328 26.4327C96.4328 26.4527 96.5428 26.4627 96.6628 26.4627C97.3228 26.4627 97.8728 26.2227 98.3128 25.7427C98.6128 25.4227 98.8028 25.0427 98.8828 24.6027V24.5727V24.5427L100.263 15.1827V15.1527C100.283 15.0527 100.293 14.9527 100.293 14.8527C100.293 14.4327 100.173 14.0327 99.9328 13.6527C99.5728 13.0727 99.0628 12.7327 98.4028 12.6327C98.3628 12.6327 98.3428 12.6327 98.3428 12.6327C98.2428 12.6127 98.1428 12.6027 98.0428 12.6027ZM88.8028 20.6427C88.7828 20.6427 88.7628 20.6427 88.7428 20.6427C88.6628 20.6427 88.5828 20.6527 88.5028 20.6727C88.1428 20.7127 87.8128 20.8327 87.5128 21.0327C87.3528 21.1327 87.2128 21.2527 87.0928 21.3927C87.0128 21.4727 86.8828 21.6127 86.7028 21.8127L84.5128 24.5127C84.3328 24.7127 84.0928 24.9927 83.7928 25.3527C83.5128 25.6927 83.2828 25.9427 83.1028 26.1027C82.7228 26.4427 82.3528 26.6827 81.9928 26.8227C81.7928 26.9027 81.5828 26.9627 81.3628 27.0027C81.2228 27.0227 81.0728 27.0327 80.9128 27.0327C80.5328 27.0327 80.1728 26.9627 79.8328 26.8227C79.5128 26.7027 79.2328 26.5327 78.9928 26.3127L79.7428 31.4427V31.5027C79.7628 31.5427 79.7728 31.5927 79.7728 31.6527C79.8128 31.8327 79.8628 32.0027 79.9228 32.1627C80.0628 32.4627 80.2728 32.7227 80.5528 32.9427C80.7328 33.1027 80.9328 33.2227 81.1528 33.3027C81.3928 33.3827 81.6428 33.4227 81.9028 33.4227C81.9428 33.4227 81.9728 33.4227 81.9928 33.4227C82.1528 33.4227 82.2928 33.4127 82.4128 33.3927C82.8728 33.2927 83.2628 33.0727 83.5828 32.7327C83.6628 32.6527 83.7628 32.5527 83.8828 32.4327L88.7728 26.4027L93.5128 32.2227C93.7528 32.5027 93.9028 32.6727 93.9628 32.7327C94.3428 33.1127 94.7928 33.3427 95.3128 33.4227C95.4128 33.4227 95.5228 33.4227 95.6428 33.4227C95.9228 33.4227 96.1928 33.3727 96.4528 33.2727C96.8728 33.0927 97.2228 32.8127 97.5028 32.4327C97.6828 32.1527 97.8028 31.8427 97.8628 31.5027V31.4427L98.6128 26.4327C98.2728 26.7327 97.8828 26.9327 97.4428 27.0327C97.1828 27.1127 96.9228 27.1527 96.6628 27.1527C96.5228 27.1527 96.3728 27.1427 96.2128 27.1227C95.9328 27.0827 95.6628 27.0027 95.4028 26.8827C95.1428 26.7627 94.8128 26.5127 94.4128 26.1327C94.1528 25.8727 93.8228 25.4827 93.4228 24.9627L90.9028 21.9027C90.7628 21.7227 90.6228 21.5627 90.4828 21.4227C90.2828 21.2227 90.0928 21.0727 89.9128 20.9727C89.6128 20.7727 89.2728 20.6627 88.8928 20.6427C88.8528 20.6427 88.8228 20.6427 88.8028 20.6427ZM108.609 20.9427C108.889 20.6827 109.209 20.4827 109.569 20.3427C109.909 20.2027 110.259 20.1327 110.619 20.1327C111.079 20.1327 111.519 20.2427 111.939 20.4627C112.419 20.7027 112.809 21.0427 113.109 21.4827C113.469 20.2027 114.179 19.1527 115.239 18.3327C116.299 17.5127 117.499 17.1027 118.839 17.1027C120.499 17.1027 121.909 17.6927 123.069 18.8727C124.229 20.0327 124.809 21.4427 124.809 23.1027C124.809 24.7627 124.229 26.1827 123.069 27.3627C121.909 28.5227 120.499 29.1027 118.839 29.1027C117.499 29.1027 116.289 28.7027 115.209 27.9027C114.149 27.0827 113.439 26.0227 113.079 24.7227C112.859 25.0627 112.579 25.3527 112.239 25.5927C111.739 25.8927 111.199 26.0427 110.619 26.0427C110.199 26.0427 109.789 25.9627 109.389 25.8027C109.089 25.6627 108.829 25.4827 108.609 25.2627C109.109 27.6827 110.319 29.6827 112.239 31.2627C114.159 32.8227 116.359 33.6027 118.839 33.6027C120.739 33.6027 122.489 33.1327 124.089 32.1927C125.709 31.2527 126.979 29.9827 127.899 28.3827C128.839 26.7627 129.309 25.0027 129.309 23.1027C129.309 21.2027 128.839 19.4527 127.899 17.8527C126.979 16.2327 125.709 14.9527 124.089 14.0127C122.489 13.0727 120.739 12.6027 118.839 12.6027C116.379 12.6027 114.189 13.3927 112.269 14.9727C110.349 16.5327 109.129 18.5227 108.609 20.9427ZM110.619 20.8527C109.959 20.8527 109.409 21.0927 108.969 21.5727C108.729 21.8127 108.559 22.1027 108.459 22.4427C108.399 22.6627 108.369 22.8927 108.369 23.1327C108.369 23.3527 108.399 23.5627 108.459 23.7627C108.539 24.0427 108.669 24.2927 108.849 24.5127C109.289 25.0727 109.879 25.3527 110.619 25.3527C111.339 25.3527 111.919 25.0827 112.359 24.5427C112.579 24.2827 112.729 24.0027 112.809 23.7027C112.849 23.5027 112.869 23.3027 112.869 23.1027C112.869 22.9227 112.849 22.7527 112.809 22.5927C112.729 22.2127 112.569 21.8827 112.329 21.6027C111.869 21.1027 111.299 20.8527 110.619 20.8527ZM140.268 12.6027C139.668 12.6027 139.148 12.8127 138.708 13.2327C138.248 13.6727 138.018 14.2127 138.018 14.8527V21.0027C138.258 20.7227 138.548 20.5027 138.888 20.3427C139.308 20.1427 139.758 20.0427 140.238 20.0427H140.298C140.758 20.0427 141.198 20.1427 141.618 20.3427C141.958 20.5027 142.258 20.7227 142.518 21.0027C142.578 21.0627 142.628 21.1227 142.668 21.1827L152.478 32.7327C152.918 33.3127 153.508 33.6027 154.248 33.6027C154.908 33.6027 155.468 33.3527 155.928 32.8527C156.308 32.4327 156.498 31.9327 156.498 31.3527V31.3227V25.2327C156.238 25.4927 155.938 25.7027 155.598 25.8627C155.178 26.0627 154.728 26.1627 154.248 26.1627C153.688 26.1627 153.168 26.0327 152.688 25.7727C152.348 25.5727 152.058 25.3227 151.818 25.0227L141.948 13.3527C141.728 13.1127 141.468 12.9227 141.168 12.7827C140.888 12.6627 140.588 12.6027 140.268 12.6027ZM154.248 12.6027C153.628 12.6027 153.108 12.8127 152.688 13.2327C152.228 13.6727 151.998 14.2127 151.998 14.8527V23.5527C151.998 23.9727 152.138 24.3527 152.418 24.6927C152.858 25.2527 153.468 25.5327 154.248 25.5327C154.788 25.5327 155.268 25.3827 155.688 25.0827C156.208 24.6827 156.478 24.1727 156.498 23.5527V14.8527C156.478 14.1527 156.208 13.5827 155.688 13.1427C155.268 12.7827 154.788 12.6027 154.248 12.6027ZM140.238 20.6727C139.638 20.6727 139.128 20.8627 138.708 21.2427C138.268 21.6427 138.038 22.1227 138.018 22.6827V31.2927V31.3527C138.018 31.8527 138.168 32.3027 138.468 32.7027C138.928 33.3027 139.528 33.6027 140.268 33.6027C140.908 33.6027 141.448 33.3727 141.888 32.9127C142.308 32.4927 142.518 31.9727 142.518 31.3527V31.3227V22.6827C142.498 21.8827 142.108 21.2927 141.348 20.9127C141.028 20.7527 140.678 20.6727 140.298 20.6727H140.238Z" fill="#0A0D27"/>
<defs>
<linearGradient id="paint0_linear" x1="29.1592" y1="-7.39708" x2="30.1547" y2="49.1031" gradientUnits="userSpaceOnUse">
<stop stop-color="#1C6897"/>
<stop offset="1" stop-color="#47C8FF"/>
</linearGradient>
</defs>
</svg>
